<svg width="964" height="282" viewBox="0 0 964 282" fill="none" xmlns="http://www.w3.org/2000/svg">
<g clip-path="url(#clip0_1_430)">
<path d="M91.5801 164.922C104.578 153.697 124.329 155.654 134.871 169.211L199.987 252.95C209.181 264.774 200.755 282 185.777 282H67.2656C56.2199 282 47.2656 273.046 47.2656 262V211.431C47.2656 206.199 49.5418 201.227 53.501 197.808L91.5801 164.922Z" fill="#1C1C1C"/>
<path d="M302.266 0C313.311 8.15302e-05 322.266 8.95436 322.266 20V262C322.266 273.046 313.311 282 302.266 282H288.442C282.919 282 277.702 279.465 274.289 275.122L170.004 142.42C160.333 130.113 161.748 112.44 173.254 101.829L278.512 4.76758C281.836 1.70223 286.192 4.97731e-05 290.714 0H302.266Z" fill="#1C1C1C"/>
<path d="M623.001 0C634.046 0.000527755 643.001 8.95463 643.001 20V262C643.001 273.045 634.046 281.999 623.001 282H388L387.483 281.993C386.797 281.976 386.12 281.924 385.452 281.839C384.952 281.775 384.457 281.694 383.969 281.594C383.643 281.527 383.321 281.452 383.001 281.37C382.202 281.165 381.423 280.911 380.666 280.612C380.409 280.511 380.156 280.403 379.904 280.292C379.415 280.075 378.935 279.84 378.467 279.586C378.042 279.355 377.625 279.11 377.22 278.85C377.084 278.763 376.951 278.674 376.817 278.584C376.285 278.224 375.771 277.84 375.277 277.433C374.784 277.025 374.31 276.595 373.857 276.143C373.466 275.751 373.092 275.342 372.734 274.92C372.471 274.61 372.217 274.292 371.973 273.966C371.877 273.838 371.782 273.709 371.689 273.578C371.318 273.055 370.971 272.514 370.649 271.955C370.409 271.536 370.182 271.108 369.972 270.671C368.708 268.048 367.999 265.107 367.999 262V237C367.999 236.988 368 236.975 368 236.963V209C368 197.954 376.954 189 388 189H479.441C496.193 187.05 511.525 181.997 525.388 173.799H525.393C543.906 163.061 558.555 148.409 569.293 129.896C580.428 111.316 585.953 90.19 585.953 66.6338C585.953 44.4919 580.779 24.6062 570.345 7.0918C568.523 4.03325 570.652 0 574.212 0H623.001Z" fill="#1C1C1C"/>
<path d="M733.58 164.922C746.578 153.697 766.329 155.654 776.871 169.211L841.987 252.95C851.181 264.774 842.755 282 827.777 282H709.266C698.22 282 689.266 273.046 689.266 262V211.431C689.266 206.199 691.542 201.227 695.501 197.808L733.58 164.922Z" fill="#1C1C1C"/>
<path d="M944.266 0C955.311 8.15302e-05 964.266 8.95436 964.266 20V262C964.266 273.046 955.311 282 944.266 282H930.442C924.919 282 919.702 279.465 916.289 275.122L812.004 142.42C802.333 130.113 803.748 112.44 815.254 101.829L920.512 4.76758C923.836 1.70223 928.192 4.97731e-05 932.714 0H944.266Z" fill="#1C1C1C"/>
<path d="M469.533 0C480.311 0.870586 490.097 3.6755 498.939 8.37305C509.766 14.1248 517.97 22.0176 523.665 32.0674L523.705 32.1367L523.747 32.2051C529.758 41.8898 532.817 53.1431 532.817 66.0967C532.817 80.5522 529.725 93.3133 523.634 104.48L523.611 104.522L523.59 104.564C517.84 115.726 509.572 124.678 498.722 131.466C487.936 137.857 475.772 141.084 462.129 141.084H451.948C451.637 141.084 451.335 141.054 451.041 141H388C376.954 141 368 132.046 368 121V68C368 67.6647 368.008 67.3313 368.024 67C368.008 66.6687 368 66.3353 368 66V62.8525C368 62.8425 367.999 62.8324 367.999 62.8223V20C367.999 12.7514 371.856 6.40331 377.629 2.89551C377.904 2.72843 378.183 2.56805 378.467 2.41406C378.75 2.26014 379.038 2.11307 379.329 1.97266C379.621 1.83219 379.916 1.69782 380.215 1.57129C380.663 1.38157 381.12 1.208 381.585 1.05078C382.979 0.578986 384.442 0.257163 385.955 0.103516C386.627 0.0352159 387.31 1.64944e-05 388 0H469.533Z" fill="#1C1C1C"/>
<path d="M173.819 0C190.587 0 198.247 20.9087 185.447 31.7402L78.7783 122.005C72.6639 127.179 65.5283 129.368 58.6133 129.146C51.4949 128.919 47.2656 121.947 47.2656 114.825V20C47.2656 8.95431 56.2199 0 67.2656 0H173.819Z" fill="#1C1C1C"/>
<path d="M815.819 0C832.587 0 840.247 20.9087 827.447 31.7402L720.778 122.005C714.664 127.179 707.528 129.368 700.613 129.146C693.495 128.919 689.266 121.947 689.266 114.825V20C689.266 8.95431 698.22 0 709.266 0H815.819Z" fill="#1C1C1C"/>
</g>
<defs>
<clipPath id="clip0_1_430">
<rect width="964" height="282" fill="white"/>
</clipPath>
</defs>
</svg>
