<svg width="984" height="302" viewBox="0 0 984 302" fill="none" xmlns="http://www.w3.org/2000/svg">
<path d="M101.58 174.922C114.578 163.697 134.329 165.654 144.871 179.211L209.987 262.95C219.181 274.774 210.755 292 195.777 292H77.2656C66.2199 292 57.2656 283.046 57.2656 272V221.431C57.2656 216.199 59.5418 211.227 63.501 207.808L101.58 174.922Z" fill="black"/>
<path d="M312.266 10C323.311 10.0001 332.266 18.9544 332.266 30V272C332.266 283.046 323.311 292 312.266 292H298.442C292.919 292 287.702 289.465 284.289 285.122L180.004 152.42C170.333 140.113 171.748 122.44 183.254 111.829L288.512 14.7676C291.836 11.7022 296.192 10 300.714 10H312.266Z" fill="black"/>
<path d="M633.001 10C644.046 10.0005 653.001 18.9546 653.001 30V272C653.001 283.045 644.046 291.999 633.001 292H398L397.483 291.993C396.797 291.976 396.12 291.924 395.452 291.839C394.952 291.775 394.457 291.694 393.969 291.594C393.643 291.527 393.321 291.452 393.001 291.37C392.202 291.165 391.423 290.911 390.666 290.612C390.409 290.511 390.156 290.403 389.904 290.292C389.415 290.075 388.935 289.84 388.467 289.586C388.042 289.355 387.625 289.11 387.22 288.85C387.084 288.763 386.951 288.674 386.817 288.584C386.285 288.224 385.771 287.84 385.277 287.433C384.784 287.025 384.31 286.595 383.857 286.143C383.466 285.751 383.092 285.342 382.734 284.92C382.471 284.61 382.217 284.292 381.973 283.966C381.877 283.838 381.782 283.709 381.689 283.578C381.318 283.055 380.971 282.514 380.649 281.955C380.409 281.536 380.182 281.108 379.972 280.671C378.708 278.048 377.999 275.107 377.999 272V247C377.999 246.988 378 246.975 378 246.963V219C378 207.954 386.954 199 398 199H489.441C506.193 197.05 521.525 191.997 535.388 183.799H535.393C553.906 173.061 568.555 158.409 579.293 139.896C590.428 121.316 595.953 100.19 595.953 76.6338C595.953 54.4919 590.779 34.6062 580.345 17.0918C578.523 14.0333 580.652 10 584.212 10H633.001Z" fill="black"/>
<path d="M743.58 174.922C756.578 163.697 776.329 165.654 786.871 179.211L851.987 262.95C861.181 274.774 852.755 292 837.777 292H719.266C708.22 292 699.266 283.046 699.266 272V221.431C699.266 216.199 701.542 211.227 705.501 207.808L743.58 174.922Z" fill="black"/>
<path d="M954.266 10C965.311 10.0001 974.266 18.9544 974.266 30V272C974.266 283.046 965.311 292 954.266 292H940.442C934.919 292 929.702 289.465 926.289 285.122L822.004 152.42C812.333 140.113 813.748 122.44 825.254 111.829L930.512 14.7676C933.836 11.7022 938.192 10 942.714 10H954.266Z" fill="black"/>
<path d="M479.533 10C490.311 10.8706 500.097 13.6755 508.939 18.373C519.766 24.1248 527.97 32.0176 533.665 42.0674L533.705 42.1367L533.747 42.2051C539.758 51.8898 542.817 63.1431 542.817 76.0967C542.817 90.5522 539.725 103.313 533.634 114.48L533.611 114.522L533.59 114.564C527.84 125.726 519.572 134.678 508.722 141.466C497.936 147.857 485.772 151.084 472.129 151.084H461.948C461.637 151.084 461.335 151.054 461.041 151H398C386.954 151 378 142.046 378 131V78C378 77.6647 378.008 77.3313 378.024 77C378.008 76.6687 378 76.3353 378 76V72.8525C378 72.8425 377.999 72.8324 377.999 72.8223V30C377.999 22.7514 381.856 16.4033 387.629 12.8955C387.904 12.7284 388.183 12.568 388.467 12.4141C388.75 12.2601 389.038 12.1131 389.329 11.9727C389.621 11.8322 389.916 11.6978 390.215 11.5713C390.663 11.3816 391.12 11.208 391.585 11.0508C392.979 10.579 394.442 10.2572 395.955 10.1035C396.627 10.0352 397.31 10 398 10H479.533Z" fill="black"/>
<path d="M183.819 10C200.587 10 208.247 30.9087 195.447 41.7402L88.7783 132.005C82.6639 137.179 75.5283 139.368 68.6133 139.146C61.4949 138.919 57.2656 131.947 57.2656 124.825V30C57.2656 18.9543 66.2199 10 77.2656 10H183.819Z" fill="black"/>
<path d="M825.819 10C842.587 10 850.247 30.9087 837.447 41.7402L730.778 132.005C724.664 137.179 717.528 139.368 710.613 139.146C703.495 138.919 699.266 131.947 699.266 124.825V30C699.266 18.9543 708.22 10 719.266 10H825.819Z" fill="black"/>
</svg>
