<svg width="106" height="24" viewBox="0 0 106 24" fill="none" xmlns="http://www.w3.org/2000/svg">
<g clip-path="url(#clip0_14_633)">
<path d="M13.3701 23.1136L12.2847 19.9764H18.7975L13.3701 23.1136Z" fill="#205EA6"/>
<path fill-rule="evenodd" clip-rule="evenodd" d="M12 18L22.38 6V11.1574L19.652 14.3112H22.38V18H12Z" fill="#205EA6"/>
<path d="M1.65968 7.77393L4.9161 8.40138L1.65968 14.0483V7.77393Z" fill="#205EA6"/>
<path d="M5.01447 19.9621L1.62 18L6.81 9L12 24L7.54578 21.4253L6.28011 17.7673L5.01447 19.9621Z" fill="#205EA6"/>
<path d="M20.853 5.15523L18.6821 7.665L15.4256 2.01802L20.853 5.15523Z" fill="#205EA6"/>
<path d="M17.19 9L1.62 6L5.64456 3.67365L9.53418 4.42311L8.23764 2.17477L12 0L17.19 9Z" fill="#205EA6"/>
<path d="M11.155 16.2118L8.71869 9.14709L15.9886 10.5586L11.155 16.2118Z" fill="#205EA6"/>
</g>
<path d="M102.453 18.75V9.2842H105.019V18.75H102.453ZM103.736 8.02736C103.349 8.02736 103.021 7.89552 102.752 7.63185C102.488 7.36232 102.356 7.04299 102.356 6.67384C102.356 6.29884 102.488 5.97951 102.752 5.71584C103.021 5.45217 103.349 5.32033 103.736 5.32033C104.128 5.32033 104.457 5.45217 104.72 5.71584C104.99 5.97951 105.125 6.29884 105.125 6.67384C105.125 7.04299 104.99 7.36232 104.72 7.63185C104.457 7.89552 104.128 8.02736 103.736 8.02736Z" fill="#434356"/>
<path d="M93.9273 21.9053C93.6988 21.9053 93.4732 21.8965 93.2505 21.8789C93.0279 21.8613 92.8404 21.8408 92.688 21.8174V19.9014C92.7818 19.919 92.899 19.9336 93.0396 19.9453C93.1802 19.9629 93.3384 19.9717 93.5142 19.9717C93.9126 19.9717 94.229 19.9043 94.4634 19.7695C94.6978 19.6348 94.8677 19.4033 94.9732 19.0752L95.0786 18.75L91.7388 9.28419H94.5513L96.7134 17.2471L96.3355 16.6406H96.8628L96.4761 17.2471L98.6382 9.28419H101.345L98.1021 18.8906C97.8501 19.6465 97.5367 20.2442 97.1617 20.6836C96.7867 21.1289 96.3326 21.4424 95.7993 21.624C95.272 21.8115 94.648 21.9053 93.9273 21.9053Z" fill="#434356"/>
<path d="M86.6324 18.75V11.2177H85.3052V9.28416H86.6324V8.50193C86.6324 7.88083 86.7378 7.36814 86.9488 6.96384C87.1656 6.55955 87.5025 6.26072 87.9595 6.06736C88.4224 5.86814 89.0288 5.76853 89.7788 5.76853C90.0191 5.76853 90.2564 5.78025 90.4908 5.80369C90.7251 5.82126 90.9214 5.8447 91.0796 5.874V7.57029C90.9917 7.55271 90.8863 7.54099 90.7632 7.53513C90.646 7.52927 90.523 7.52634 90.3941 7.52634C89.9605 7.52634 89.6412 7.62009 89.4361 7.80759C89.2369 7.98923 89.1372 8.25583 89.1372 8.6074V9.28416H91.0445V11.2177H89.1988V18.75H86.6324Z" fill="#434356"/>
<path d="M82.9146 18.9082C82.5103 18.9082 82.1675 18.7705 81.8863 18.4951C81.6109 18.2138 81.4732 17.8711 81.4732 17.4668C81.4732 17.0625 81.6109 16.7226 81.8863 16.4472C82.1675 16.166 82.5103 16.0254 82.9146 16.0254C83.3247 16.0254 83.6675 16.166 83.9429 16.4472C84.2241 16.7226 84.3648 17.0625 84.3648 17.4668C84.3648 17.8711 84.2241 18.2138 83.9429 18.4951C83.6675 18.7705 83.3247 18.9082 82.9146 18.9082Z" fill="#434356"/>
<path d="M75.9184 18.9433C75.0512 18.9433 74.31 18.8203 73.6948 18.5742C73.0854 18.3222 72.6079 17.9736 72.2622 17.5283C71.9223 17.083 71.7202 16.5673 71.6557 15.9814L71.6469 15.9111H74.1518L74.1694 15.9814C74.2573 16.3388 74.4448 16.6201 74.7319 16.8252C75.019 17.0302 75.4175 17.1328 75.9272 17.1328C76.2553 17.1328 76.5337 17.0918 76.7622 17.0097C76.9966 16.9277 77.1782 16.8134 77.3071 16.667C77.436 16.5146 77.5005 16.3359 77.5005 16.1308V16.122C77.5005 15.8701 77.4067 15.665 77.2192 15.5068C77.0317 15.3486 76.7036 15.2197 76.2348 15.1201L74.6352 14.7773C74.0259 14.6484 73.5161 14.4638 73.1059 14.2236C72.6958 13.9775 72.3882 13.6728 72.1831 13.3095C71.9839 12.9463 71.8843 12.5302 71.8843 12.0615V12.0527C71.8843 11.4492 72.0454 10.9277 72.3677 10.4882C72.6958 10.0429 73.1557 9.69723 73.7475 9.45114C74.3452 9.20505 75.0425 9.082 75.8393 9.082C76.6772 9.082 77.3891 9.21676 77.9751 9.4863C78.561 9.74997 79.0093 10.1045 79.3198 10.5498C79.6362 10.9951 79.8032 11.4902 79.8208 12.0351L79.8296 12.1142H77.4565L77.4477 12.0527C77.4009 11.7246 77.2397 11.4521 76.9643 11.2353C76.6948 11.0127 76.3198 10.9013 75.8393 10.9013C75.5464 10.9013 75.2886 10.9424 75.0659 11.0244C74.8491 11.1064 74.6821 11.2236 74.5649 11.3759C74.4477 11.5283 74.3891 11.707 74.3891 11.9121V11.9209C74.3891 12.0849 74.4302 12.2314 74.5122 12.3603C74.5942 12.4834 74.729 12.5918 74.9165 12.6855C75.104 12.7793 75.3559 12.8613 75.6723 12.9316L77.2807 13.2656C78.2651 13.4765 78.9741 13.7871 79.4077 14.1972C79.8471 14.6074 80.0669 15.1611 80.0669 15.8584V15.8672C80.0669 16.4882 79.8882 17.0302 79.5307 17.4931C79.1792 17.9502 78.6928 18.3076 78.0718 18.5654C77.4507 18.8173 76.7329 18.9433 75.9184 18.9433Z" fill="#434356"/>
<path d="M69.274 18.9171C68.2017 18.9171 67.4136 18.7003 66.9097 18.2667C66.4058 17.8331 66.1539 17.1182 66.1539 16.1221V11.2179H64.8091V9.28426H66.1539V6.98152H68.7466V9.28426H70.522V11.2179H68.7466V15.7882C68.7466 16.2218 68.8433 16.5294 69.0367 16.711C69.2359 16.8868 69.5347 16.9747 69.9332 16.9747C70.0562 16.9747 70.1617 16.9718 70.2496 16.9659C70.3433 16.9542 70.4341 16.9425 70.522 16.9307V18.8116C70.3755 18.8409 70.1968 18.8643 69.9859 18.8819C69.775 18.9054 69.5377 18.9171 69.274 18.9171Z" fill="#434356"/>
<path d="M61.0123 18.7499V5.94427H63.5787V18.7499H61.0123Z" fill="#434356"/>
<path d="M53.6031 18.9434C52.9058 18.9434 52.314 18.8027 51.8277 18.5215C51.3413 18.2402 50.9722 17.833 50.7202 17.2998C50.4683 16.7666 50.3423 16.1309 50.3423 15.3926V9.28419H52.9087V14.8565C52.9087 15.4834 53.0523 15.9668 53.3394 16.3067C53.6265 16.6465 54.0601 16.8164 54.6402 16.8164C54.9331 16.8164 55.1939 16.7666 55.4224 16.667C55.6568 16.5674 55.856 16.4268 56.0201 16.2451C56.19 16.0576 56.3159 15.8379 56.398 15.5859C56.4859 15.3281 56.5298 15.041 56.5298 14.7246V9.28419H59.0962V18.75H56.5298V17.2119H56.4595C56.3013 17.5693 56.0874 17.8799 55.8179 18.1436C55.5542 18.4014 55.2378 18.6006 54.8687 18.7412C54.4995 18.876 54.0777 18.9434 53.6031 18.9434Z" fill="#434356"/>
<path d="M43.188 18.8994C42.5611 18.8994 42.0103 18.7793 41.5357 18.539C41.0611 18.2929 40.689 17.956 40.4195 17.5283C40.1558 17.0947 40.024 16.5996 40.024 16.0429V16.0254C40.024 15.4511 40.1675 14.9619 40.4546 14.5576C40.7417 14.1474 41.1578 13.8252 41.7027 13.5908C42.2535 13.3506 42.9214 13.207 43.7066 13.1601L47.3628 12.9316V14.5224L44.0933 14.7334C43.5894 14.7627 43.2056 14.8798 42.9419 15.0849C42.6841 15.2841 42.5552 15.5537 42.5552 15.8935V15.9023C42.5552 16.2539 42.6871 16.5293 42.9507 16.7285C43.2203 16.9277 43.5777 17.0273 44.023 17.0273C44.4097 17.0273 44.7525 16.9511 45.0513 16.7988C45.356 16.6465 45.5962 16.4414 45.772 16.1836C45.9478 15.9199 46.0357 15.624 46.0357 15.2959V12.3955C46.0357 11.9795 45.9009 11.6513 45.6314 11.4111C45.3677 11.1709 44.981 11.0507 44.4712 11.0507C43.9966 11.0507 43.6158 11.1474 43.3287 11.3408C43.0474 11.5283 42.8716 11.7715 42.8013 12.0703L42.7837 12.1494H40.4283L40.4371 12.0439C40.4898 11.4638 40.6861 10.9541 41.0259 10.5146C41.3716 10.0693 41.8433 9.72067 42.441 9.46872C43.0445 9.21091 43.7593 9.082 44.5855 9.082C45.4058 9.082 46.1148 9.21383 46.7124 9.47751C47.3101 9.74118 47.773 10.1103 48.1011 10.5849C48.4292 11.0595 48.5933 11.6191 48.5933 12.2636V18.75H46.0357V17.3701H45.9654C45.7896 17.6865 45.5611 17.959 45.2798 18.1875C45.0044 18.416 44.691 18.5918 44.3394 18.7148C43.9878 18.8379 43.604 18.8994 43.188 18.8994Z" fill="#434356"/>
<path d="M33.4498 18.75L30.1714 9.28419H32.9136L34.8824 16.4561H34.9615L36.9127 9.28419H39.5933L36.3414 18.75H33.4498Z" fill="#434356"/>
<defs>
<clipPath id="clip0_14_633">
<rect width="24" height="24" fill="white"/>
</clipPath>
</defs>
</svg>
